#!OML:ASF F:\VICON\USERDATA\INSTALL\rory3\rory3.ASF
:FULLY-SPECIFIED
:DEGREES
56
root -0.6546750570861268 17.76213380857022 5.247015276079351 1.7082337350001962 5.729081088585472 -1.3428564671276528
lfemur -22.30309782853027 0.391875787661792 -24.84859362483459
ltibia 29.136401978975915
lfoot 0.22655537606887322 -23.528944884449306
ltoes -1.8780511273549267
rfemur -3.846698342745018 -1.642433977105262 27.276942361011404
rtibia 72.83713757927028
rfoot 29.133388001445816 -10.055761845821184
rtoes 30.403577294798996
lowerback 1.0 -0.9137464155639123 -0.8141369186410008
upperback 0.5627319631413864 0.9204835757868118 -0.7815587381077782
thorax -10.60645294536578 0.131867897790446 0.8740633148001853
lowerneck -24.736754961130295 -4.783114665777755 -1.7012943325537235
upperneck 10.20035737391072 -5.765252162799548 2.745711504918741
head 7.4228098034792005 -2.4040796078085833 0.7707726928994608
lclavicle 8.39753572843753e-14 9.193930303270971e-15
lhumerus -57.39960303084713 -7.801226822387238 94.4875865045725
lradius 116.77965741674487
lwrist 46.726677010414804
lhand -29.849661661047893 -0.234789455273612
lfingers nan
lthumb -3.304534361297646 29.445431743444153
rclavicle 8.573048935861949e-14 9.94695453583786e-15
rhumerus -54.66503318089892 10.830222006690432 -106.27962347772936
rradius 121.92424929429768
rwrist -20.219783524984432
rhand -16.75089546587022 1.0
rfingers nan
rthumb 9.247292981250071 0.8505435525148863
57
root -0.6747332976890553 17.67986066765614 6.00584963253745 1.739363190251046 5.679379805598078 -1.3726354847951885
lfemur -21.47654379978061 0.45547065779031715 -24.923917411524403
ltibia 31.782935262577688
lfoot -4.4012444246065225 -21.707063129753912
ltoes -1.3429688116300982
rfemur -6.39862411251919 -2.5959354253895874 26.145473309025444
rtibia 76.6026415589175
rfoot 28.161884020870406 -8.867138898151943
rtoes 30.034073338167627
lowerback 1.0 -0.9921804481650551 -1.0181335558698976
upperback 0.5168955017021984 0.7941765316739336 -0.7654933254558245
thorax -11.006301313017646 0.09213154112284966 1.0779398074372981
lowerneck -25.18455820443266 -4.624916847877076 -1.7886465078399296
upperneck 9.71237763181161 -5.65108042337205 3.120958331440321
head 7.393849451658832 -2.3070080605842023 0.9090206005248083
lclavicle -1.3370483102285856e-14 -1.0593805347999856e-14
lhumerus -55.53216763546908 -8.403119230982696 94.68245564585253
lradius 117.4667720950143
lwrist 45.943149375208115
lhand -29.722231346362864 -0.40297352280846144
lfingers nan
lthumb -3.175620569390577 29.286694017588296
rclavicle -1.1027688728966073e-14 -9.598775731945725e-15
rhumerus -55.12302015273 10.40504817250063 -106.03112541820346
rradius 120.31596899336814
rwrist -19.811536257810467
rhand -16.86426487454805 1.0
rfingers nan
rthumb 9.103582056289643 1.6499538188683012
58
root -0.6931594533540699 17.601352051842724 6.366796862270846 2.000240922693144 5.825625314523547 -1.3750196976693145
lfemur -20.981825674666702 0.3469271176030624 -25.098507114437144
ltibia 34.241428989872716
lfoot -8.32993704633413 -19.179408842912686
ltoes -4.359220887441606
rfemur -9.18047127502135 -3.700579607188775 25.057366916426393
rtibia 80.25268897882674
rfoot 25.969208652761356 -8.232661147625286
rtoes 26.37697035253541
lowerback 1.0 -1.1011369043088053 -1.139399511721894
upperback 0.455027596853944 0.6185569957591699 -0.8188968693575192
thorax -10.877389519693834 0.027843192295598174 1.2310827261631534
lowerneck -25.457638248512435 -4.433443845236704 -1.802961864997152
upperneck 9.220167606597428 -5.52540036690995 3.4657701245935986
head 7.3348638359314515 -2.2018198330091856 1.0217395889817193
lclavicle 6.058409170483014e-14 5.109154350321376e-15
lhumerus -53.3313721617342 -9.202028214529477 94.81495753793064
lradius 117.89392718045646
lwrist 44.964306303644086
lhand -30.08876468560604 -1.0843143869170018
lfingers nan
lthumb -3.5255442773008765 28.624048626663132
rclavicle 6.309907048180909e-14 6.071514341012804e-15
rhumerus -55.237710840949646 9.949167123849383 -105.45723857363264
rradius 118.19495648230543
rwrist -18.57823997699957
rhand -21.20813746905969 1.0
rfingers nan
rthumb 4.8307764238001045 -5.591234310908305
59
root -0.7098496507494557 17.535137755753944 6.536168998930558 2.2751441954298945 6.223820790792988 -0.8730310135316366
lfemur -20.222438070647407 -0.20826654772255565 -25.740805407191452
ltibia 35.97751078865657
lfoot -10.837295634875078 -16.98093165219277
ltoes -1.2824783054310274
rfemur -11.7715256938985 -5.104168216014262 23.166415058996712
rtibia 83.44081858556822
rfoot 22.900261847972835 -8.0119593123013
rtoes 17.59368247246598
lowerback 1.0 -1.215352310236177 -1.7397211195312716
upperback 0.5627653045705333 0.34031034822575223 -1.0603038165140506
thorax -10.308921603341549 -0.07544026128359732 1.4549997742849963
lowerneck -25.647917246427454 -4.317568720466101 -1.7140880013430253
upperneck 8.514710479780344 -5.541796606989584 3.752094914909152
head 7.193767907600421 -2.1573868601138977 1.075701421187508
lclavicle 4.798613745373667e-14 -1.1025093503640754e-14
lhumerus -50.780550893530986 -10.267666083204144 94.8634147390186
lradius 118.30962386639675
lwrist 44.29025639901559
lhand -30.706937438906365 -1.3822702329249548
lfingers nan
lthumb -4.1469950509588 28.314158044198983
rclavicle 5.023628485915696e-14 -1.0080232714160994e-14
rhumerus -55.18693233177336 9.52412674713382 -104.9251932213798
rradius 115.97468694832745
rwrist -17.510863474463683
rhand -20.120347575498492 1.0
rfingers nan
rthumb 5.875059306424848 -3.2537495071296796
